#!OML:ASF H:\ManfredETheater\Project 1\Capture day 1\Session 1\subject.ASF
:FULLY-SPECIFIED
:DEGREES
124
root -0.712752 15.9667 14.7868 -7.28735 61.9666 -24.7924
lowerback 16.805 -1.8021 3.00185
upperback 0.301894 -1.25138 4.80837
thorax -9.09346 -0.570773 3.81369
lowerneck -18.8505 -0.777754 -0.298271
upperneck 13.9785 -0.85558 -0.631911
head 7.3832 -0.485189 -0.259262
rclavicle 7.51406e-014 -1.03368e-013
rhumerus -54.4668 -1.03948 -74.5191
rradius 77.2126
rwrist -20.0521
rhand -25.3373 7.69423
rfingers 7.12502
rthumb 1.18578 -22.2822
lclavicle 7.51406e-014 -1.03368e-013
lhumerus -39.8229 -9.22698 95.9988
lradius 113.682
lwrist 12.628
lhand -21.9347 -11.2175
lfingers 7.12502
lthumb 4.47183 18.7152
rfemur -20.6078 -10.8865 14.7827
rtibia 71.5435
rfoot -3.23897 -11.3025
rtoes -37.1072
lfemur -38.5409 1.10996 -28.4235
ltibia 64.8121
lfoot -24.2451 -4.92523
ltoes 32.0962
125
root -0.432258 16.0046 15.0689 -5.2964 62.6193 -22.5599
lowerback 16.9697 -1.91637 2.2829
upperback 0.259984 -1.58561 4.37324
thorax -9.20697 -0.714248 3.83786
lowerneck -18.7469 -0.873435 -0.564464
upperneck 13.9209 -0.974741 -0.301983
head 7.34957 -0.52446 -0.1207
rclavicle 3.18055e-015 3.4191e-014
rhumerus -56.1488 -1.52252 -74.1612
rradius 76.6712
rwrist -20.6988
rhand -25.4936 7.6937
rfingers 7.12502
rthumb 1.03485 -22.2835
lclavicle 3.18055e-015 3.4191e-014
lhumerus -37.8936 -9.43282 96.5527
lradius 115.295
lwrist 11.9382
lhand -22.3867 -10.896
lfingers 7.12502
lthumb 4.03531 19.0456
rfemur -23.8448 -11.3481 13.5671
rtibia 73.2654
rfoot -4.62761 -11.8848
rtoes -36.3484
lfemur -36.684 1.20919 -29.0606
ltibia 64.0996
lfoot -24.4521 -5.6534
ltoes 31.1641
126
root -0.142378 16.0389 15.3499 -3.19047 63.0891 -20.2432
lowerback 17.0177 -2.00623 1.62067
upperback 0.215362 -1.88277 3.95077
thorax -9.25877 -0.841606 3.82998
lowerneck -18.6461 -0.946226 -0.807735
upperneck 13.9332 -1.05627 -0.0416416
head 7.33954 -0.551388 -0.00465708
rclavicle 3.22031e-014 -1.66979e-014
rhumerus -57.8872 -1.86588 -73.8834
rradius 76.5556
rwrist -21.2134
rhand -25.5103 7.73481
rfingers 7.12502
rthumb 1.01872 -22.2425
lclavicle 3.22031e-014 -1.66979e-014
lhumerus -36.2883 -9.79295 97.0405
lradius 116.881
lwrist 11.5541
lhand -22.8778 -10.5599
lfingers 7.12502
lthumb 3.56108 19.3901
rfemur -27.1473 -11.694 12.4337
rtibia 74.5319
rfoot -6.00389 -12.0013
rtoes -36.1338
lfemur -34.7585 1.41138 -29.6546
ltibia 63.2229
lfoot -24.6095 -6.41732
ltoes 30.2519
127
root 0.158701 16.0732 15.6309 -1.05409 63.3763 -17.9249
lowerback 16.95 -2.08257 1.01065
upperback 0.17204 -2.15265 3.5599
thorax -9.24467 -0.957524 3.81455
lowerneck -18.5629 -0.979209 -1.02068
upperneck 14.0069 -1.07338 0.116316
head 7.35202 -0.555882 0.0800385
rclavicle 4.37326e-015 -1.70955e-014
rhumerus -59.6327 -2.04558 -73.6911
rradius 76.8143
rwrist -21.6068
rhand -25.3931 7.84214
rfingers 7.12502
rthumb 1.13195 -22.1346
lclavicle 4.37326e-015 -1.70955e-014
lhumerus -35.0576 -10.3009 97.449
lradius 118.452
lwrist 11.6795
lhand -23.3407 -10.2581
lfingers 7.12502
lthumb 3.11412 19.6989
rfemur -30.4538 -11.9292 11.4285
rtibia 75.2873
rfoot -7.31222 -11.7515
rtoes -36.3665
lfemur -32.7422 1.70378 -30.1751
ltibia 62.1534
lfoot -24.6592 -7.23645
ltoes 29.362
